inDegrees=no
nColumns=24
nRows=23
DataType=double
version=3
OpenSimVersion=4.5
endheader
time	pelvis_tilt	pelvis_list	pelvis_rotation	pelvis_tz	pelvis_ty	pelvis_tx	hip_flexion_r	hip_adduction_r	hip_rotation_r	knee_angle_r	ankle_angle_r	subtalar_angle_r	mtp_angle_r	hip_flexion_l	hip_adduction_l	hip_rotation_l	knee_angle_l	ankle_angle_l	subtalar_angle_l	mtp_angle_l	lumbar_extension	lumbar_bending	lumbar_rotation
0.6899999999999997	-0.02403784296660764	-0.087573024039279	0.01981903854687196	-0.001565360000000016	0.8704732900000001	0.85381935	0.354658442431353	0.1637857575156526	-0.008592064270416215	-0.3961089286658187	0.07397605890032827	-0.0480259773649071	0	0.07623496123309868	-0.1037778641032774	-0.04015636752921149	-1.0063219788612	-0.1726960344040827	0.142698820567284	0	-0.02473456722368904	0.07192125153056175	-0.04609270372867516
0.7	-0.02929057853998978	-0.08681745316402051	0.02564542246873561	-0.001716670000000003	0.87235617	0.86472682	0.3374890598283048	0.162197995017732	-0.009935442799412849	-0.3801919295822864	0.08147075892272612	-0.04850546870324778	0	0.1244675089614878	-0.1031068905983053	-0.03275796151043638	-1.046335059396679	-0.148568189879612	0.1026714609695958	0	-0.0224083121114854	0.07000900143236762	-0.04114206526262142
0.7099999999999997	-0.03336959435545491	-0.08624832807703342	0.02997850548474509	-0.001845590000000008	0.87412574	0.87547243	0.3192997460802993	0.1613972852553398	-0.008768440786904532	-0.364439137357967	0.0862324101703142	-0.04932424227433234	0	0.1707627159128889	-0.1012878875079258	-0.02624604521972933	-1.080460012170095	-0.1240178409367405	0.06686979429479946	0	-0.02168707102966079	0.06849824059211698	-0.03463134487151784
0.72	-0.03727803530012594	-0.08418116609734839	0.03279553959720474	-0.001883540000000017	0.87591153	0.88626421	0.3001057607755196	0.1592800024287347	-0.006605613942534515	-0.3476946061175648	0.09198460418531575	-0.0494289391656388	0	0.2159688386327762	-0.09836765356710302	-0.02273541054978697	-1.106594517062521	-0.1056204678848682	0.03591290314027713	0	-0.02077978343462719	0.06576425335376841	-0.02941897787803256
0.7299999999999998	-0.03895750391697101	-0.07984938406047888	0.03465112001464173	-0.002005050000000008	0.87793836	0.89721562	0.2774851546678032	0.1549134279248853	-0.00573322490402624	-0.3293955629958877	0.09814285515944615	-0.04771834388562134	0	0.254583071632169	-0.09277842827474304	-0.01985765966828701	-1.121658493804524	-0.09627185434732659	0.02763571092768641	0	-0.02213645055148266	0.06020466898809506	-0.01974339139136261
0.74	-0.04256479235919581	-0.07645758536086929	0.03572819280629604	-0.002002229999999994	0.87953388	0.9082217300000001	0.2563893631405404	0.1513489508947165	-0.005226578336919636	-0.3100750488252542	0.1045046652805	-0.04475873618953821	0	0.2950548589035253	-0.08779112113923658	-0.01941712425338377	-1.130032654590493	-0.08517412209891874	0.01580428572043851	0	-0.02077466665285912	0.0559407214150593	-0.01314989020836986
0.7499999999999998	-0.04597440468406876	-0.07165613885930373	0.03555720608380866	-0.001875070000000006	0.88093003	0.91917603	0.2367829256411867	0.1468208444232658	-0.006077223889073642	-0.2936634080728093	0.1118804773139764	-0.04330661282710097	0	0.3312691723771073	-0.08300840254584646	-0.02147570746845407	-1.129290873950432	-0.07665998503427482	0.009573263243146198	0	-0.01995259406042243	0.05025295169153907	-0.007653095284267488
0.76	-0.04932533234084802	-0.06650005581115009	0.03478669631906127	-0.001786100000000013	0.88213262	0.93011031	0.2186076054195249	0.1417256104901392	-0.008567529304456305	-0.2797298283783797	0.1194594240303022	-0.04141661462967223	0	0.3656000401428713	-0.0787847059305531	-0.02654871690248461	-1.121744083180245	-0.06568520407582001	0.006175093052346299	0	-0.01899292808733893	0.04446605564408598	-0.002218434779667806
0.7699999999999998	-0.05222093250717979	-0.06094060756908445	0.03331416938208626	-0.001594390000000001	0.88308694	0.9412348500000001	0.1996968442917772	0.1365554075097894	-0.008071596091897219	-0.2662612267368958	0.1265492167419494	-0.03825434226790726	0	0.3978037325558299	-0.07340611168471278	-0.03099344934463338	-1.107189167842902	-0.05862626546922243	0.006448629604832183	0	-0.01787410117644294	0.03809252808056588	0.003665038363812692
0.78	-0.054585701873757	-0.05655979710634786	0.03221659745361043	-0.001379679999999994	0.88376442	0.95241098	0.1816655245544463	0.1324671137123987	-0.01111901304797743	-0.2545451636044145	0.1344585298510682	-0.03650713137644636	0	0.4254477737655032	-0.07190523289868694	-0.04057150596003726	-1.085133617141973	-0.04977071617201549	0.006301830310512791	0	-0.01746503142995929	0.03323996071237924	0.007729848057986114
0.7899999999999998	-0.05754977582877524	-0.05017202493323736	0.02675407744437678	-0.0009670300000000076	0.88435284	0.96350742	0.1649588877282306	0.1268287441370928	-0.004517119623809387	-0.2452992921894171	0.142573832129028	-0.02532197872739876	0	0.4498874622015471	-0.06599416226000805	-0.04789495706875622	-1.052454297549638	-0.04229068721277698	0.008340208721497379	0	-0.01665406314582257	0.02634853374593324	0.01632453939799243
0.8	-0.05936798952254815	-0.04736385167504712	0.02319996010587536	-0.000618179999999996	0.8845165	0.97462632	0.1477860334907673	0.1242047067075004	-0.00777878586848156	-0.2361162030601408	0.152931223284942	-0.02159581282452884	0	0.4736683450445651	-0.06598178106882732	-0.05787811716991859	-1.017978902210109	-0.03618527957240921	0.008142356975760824	0	-0.01649818621953063	0.02347370384746942	0.02365397541524941
0.8099999999999998	-0.05864648024702517	-0.04190840835049036	0.01594539266174559	-0.000219579999999997	0.88475549	0.9859433799999999	0.1288557937904356	0.1193218353620443	0.0002847134664827326	-0.2309447158665274	0.1671686133149309	-0.01050729102764961	0	0.4886512563042678	-0.06281434340514108	-0.069275974840236	-0.9734848764430295	-0.02240558119480481	0.006482968085200547	0	-0.01871033990828636	0.01853121257836397	0.03365024101923209
0.8200000000000001	-0.05948130712812592	-0.04038427274080732	0.01097373422131503	4.197999999999702e-05	0.88437762	0.9972128600000001	0.1109856044204452	0.1177297482873031	-0.0002612197639545621	-0.2231478400094148	0.1786275308055306	-0.007137644927347974	0	0.5056243417263441	-0.06430349427672523	-0.07987916054017549	-0.926352009363642	-0.01602243931056718	0.00656887563444466	0	-0.01924576067157304	0.01854085307902029	0.04097099105640066
0.8299999999999998	-0.05339712641861968	-0.03526894817114267	-0.0007431960948049068	0.0007202699999999951	0.88457586	1.00862567	0.08829425104243334	0.113094655750699	0.01167635741559718	-0.222212518063271	0.1894458644640939	0.004497204195313655	0	0.5085173935603304	-0.06381691410909465	-0.09585403474170393	-0.8686911425759641	-0.005735687040002028	0.01084023893693923	0	-0.02817216579855489	0.01427957044921939	0.05531880073778037
0.8400000000000001	-0.05456101746222668	-0.03772090630250444	-0.005339202420105997	0.0007544200000000056	0.88348013	1.01995125	0.0706061347690768	0.1150780934657589	0.01309096318043356	-0.213976899244397	0.2021978580002526	0.005374160062342698	0	0.5225908935083656	-0.06743966192340105	-0.1024947458592326	-0.8136948896795265	-0.001763617160962576	0.01271241697363925	0	-0.02782551391304446	0.01926494550524388	0.0622778941193262
0.8499999999999999	-0.04789697881762735	-0.03595380972200969	-0.01766909640667387	0.001501719999999984	0.88306447	1.03156506	0.04660343419169852	0.113240956753517	0.02488164629428753	-0.2115863456789511	0.2126330070650014	0.01154257653216842	0	0.5214115164133288	-0.070533428366696	-0.1190769864374076	-0.7490443672243043	0.007042013276176374	0.02054705459991511	0	-0.03650307610392935	0.01859821472115048	0.07583104282590228
0.8600000000000001	-0.0498544879320076	-0.04430116097061043	-0.02280595265349956	0.001621359999999988	0.88128215	1.0427585	0.03439981176187629	0.1212160766294176	0.02203168175261102	-0.2129901628655492	0.2202991071465914	0.01136379914076106	0	0.5345314599133272	-0.07871223444948962	-0.1202944759382542	-0.6908797774705497	0.009776423233269769	0.02375206606080414	0	-0.03652976044286309	0.02974797226750057	0.07823288902067442
0.8699999999999999	-0.04599307342860749	-0.04259603767898575	-0.03385163017688179	0.002054709999999987	0.8801381	1.05473827	0.008439514290744427	0.1178959772849874	0.03414456242022695	-0.2016727285709003	0.2416267494334197	0.02279727217432758	0	0.5340146499449204	-0.08090977833614275	-0.1377943392531614	-0.6240626387120854	0.01096575411556348	0.04704811807970082	0	-0.03980834905089674	0.03026327915835557	0.09323782738273476
0.8800000000000001	-0.04814067665750632	-0.05203960402790772	-0.03829616440931369	0.001920699999999997	0.8778369300000001	1.06601535	-0.004058745198621518	0.1261863154920371	0.03099993935145692	-0.2027947431511421	0.248528829366021	0.0237517679585679	0	0.5458000850282466	-0.08905988143218976	-0.1410991933211083	-0.5660104787054213	0.01343405058001264	0.052085120673131	0	-0.03934881939227698	0.04340360339162817	0.09651338383025893
0.8899999999999999	-0.04424593032746549	-0.05069635821735474	-0.04801704323283176	0.002053449999999984	0.8764514800000001	1.07831205	-0.02953633730759516	0.1219671607470562	0.03744703219388272	-0.1932613406101176	0.2646721575109642	0.0394577886750594	0	0.5399560556277294	-0.08931209721706623	-0.1582285942707177	-0.4948076593237861	0.01337695719498848	0.09418099440933331	0	-0.04313507715582598	0.04393481442075904	0.110694412291779
0.9000000000000001	-0.04078049294558708	-0.05733721264022144	-0.0533755197148102	0.001863840000000005	0.87448704	1.09019145	-0.05110496086943765	0.1258648686043864	0.03519505794557812	-0.1895955597832411	0.2785608593798043	0.05314743487004498	0	0.5388249532926055	-0.09408429479119242	-0.1642704152031121	-0.4325793713015259	0.01057824826105406	0.1251589401687541	0	-0.04818271194599348	0.05329403222976991	0.1192232136127982
0.9099999999999999	-0.03936733511358878	-0.06354182910115375	-0.0603163179860659	0.001684099999999994	0.8722548800000001	1.10217618	-0.07076019218962352	0.1292307008112066	0.03622326125305819	-0.1864539149443067	0.2888949858203881	0.0643257994100328	0	0.5388293438428716	-0.09877879676473804	-0.1711425929332379	-0.3732529108032641	0.001346302304559575	0.1518488995862856	0	-0.05156076372650564	0.06291620466001183	0.1277736652195896
